<svg width="12" height="19" viewBox="0 0 12 19" fill="none" xmlns="http://www.w3.org/2000/svg">
<g clip-path="url(#clip0_1_6083)">
<path d="M11.1501 6.79648C11.1501 7.45856 10.8906 8.46807 10.4167 9.68228C9.95274 10.8711 9.31826 12.1696 8.6467 13.3756C7.97462 14.5826 7.27715 15.6759 6.69418 16.4574C6.4203 16.8245 6.18504 17.1047 6.0001 17.2922C5.81517 17.1047 5.5799 16.8245 5.30602 16.4574C4.72305 15.6759 4.02558 14.5826 3.3535 13.3756C2.68194 12.1696 2.04746 10.8711 1.58347 9.68228C1.10957 8.46807 0.850098 7.45856 0.850098 6.79648C0.850098 3.95221 3.15583 1.64648 6.0001 1.64648C8.84437 1.64648 11.1501 3.95221 11.1501 6.79648ZM5.76079 17.4996C5.76079 17.4996 5.7648 17.4967 5.77235 17.493C5.76449 17.498 5.76079 17.4996 5.76079 17.4996ZM6.22786 17.493C6.23542 17.4968 6.23941 17.4996 6.23941 17.4996C6.23941 17.4996 6.2357 17.498 6.22786 17.493Z" stroke="#6E7A80" stroke-width="1.7"/>
</g>
<defs>
<clipPath id="clip0_1_6083">
<rect width="12" height="18" fill="white" transform="translate(0 0.546875)"/>
</clipPath>
</defs>
</svg>
