<svg width="85" height="26" viewBox="0 0 85 26" fill="none" xmlns="http://www.w3.org/2000/svg">
<g clip-path="url(#clip0_1_6108)">
<path d="M39.1234 25.0626L37.4833 20.3183H27.5087L25.8686 25.0626H21.6846L30.1864 1.50941H34.8056L43.2739 25.0626H39.1234ZM28.7806 16.6844H36.2114L32.496 6.05181L28.7806 16.6844Z" fill="white"/>
<path d="M60.6845 25.0626H56.5005L52.35 19.3089L48.166 25.0626H43.9485L50.2412 16.4152L44.2832 8.23891H48.4672L52.3165 13.5552L56.1658 8.23891H60.3832L54.4252 16.4489L60.6845 25.0626Z" fill="white"/>
<path d="M64.7481 18.1985C65.0159 19.4771 65.6295 20.4641 66.5891 21.1595C67.5486 21.8324 68.7201 22.1689 70.1036 22.1689C72.0227 22.1689 73.4619 21.4735 74.4215 20.0828L77.4005 21.8324C75.7492 24.2775 73.3057 25.5 70.0701 25.5C67.3477 25.5 65.1498 24.67 63.4762 23.0101C61.8026 21.3277 60.9658 19.2079 60.9658 16.6507C60.9658 14.1384 61.7914 12.041 63.4427 10.3587C65.094 8.65388 67.2139 7.80148 69.8024 7.80148C72.257 7.80148 74.2653 8.6651 75.8273 10.3923C77.4116 12.1196 78.2038 14.2169 78.2038 16.6844C78.2038 17.0657 78.1592 17.5704 78.0699 18.1985H64.7481ZM64.7146 15.2375H74.5554C74.3099 13.8692 73.7409 12.8374 72.8483 12.142C71.978 11.4466 70.9516 11.0989 69.7689 11.0989C68.43 11.0989 67.3143 11.469 66.4217 12.2093C65.5291 12.9495 64.9601 13.959 64.7146 15.2375Z" fill="white"/>
<path d="M81.3845 25.0626V0.5H84.9994V25.0626H81.3845Z" fill="white"/>
<path fill-rule="evenodd" clip-rule="evenodd" d="M11.0037 7.99954C11.443 8.11576 11.586 8.65946 11.5165 9.10854C11.4307 9.66266 11.6004 10.249 12.0254 10.6756L12.3486 11.0001C12.6121 11.2646 12.6122 11.6922 12.349 11.9568L10.1437 14.1737C9.94371 14.3747 9.64132 14.4202 9.36465 14.3581C9.20257 14.3218 9.03406 14.3026 8.8611 14.3026C7.58933 14.3026 6.55835 15.339 6.55835 16.6174C6.55835 16.7936 6.57792 16.9651 6.615 17.13C6.67672 17.4044 6.63171 17.7041 6.43334 17.9035L4.22354 20.1249C3.95958 20.3902 3.53054 20.3915 3.26499 20.1277L2.95823 19.823C2.5356 19.4032 1.9591 19.2357 1.41371 19.3195C0.962616 19.3887 0.414683 19.2473 0.297285 18.8063C0.103381 18.0779 0 17.3123 0 16.5224C0 11.6554 3.92487 7.70996 8.76645 7.70996C9.53967 7.70996 10.2895 7.81059 11.0037 7.99954ZM13.3046 12.925C13.5696 12.6586 14.0006 12.6585 14.2657 12.9246L14.581 13.2411C15.0028 13.6645 15.5807 13.8349 16.1282 13.7524C16.5798 13.6843 17.1279 13.8275 17.2438 14.2693C17.4324 14.9885 17.5329 15.7436 17.5329 16.5224C17.5329 21.3893 13.608 25.3348 8.76645 25.3348C8.00508 25.3348 7.26639 25.2372 6.56206 25.0538C6.12164 24.9392 5.97689 24.3946 6.04525 23.9447C6.12968 23.3891 5.95722 22.8019 5.52904 22.3766L5.19224 22.042C4.92641 21.778 4.92512 21.3484 5.18937 21.0828L7.28589 18.9752C7.50748 18.7525 7.85073 18.7221 8.14943 18.8196C8.37354 18.8927 8.61273 18.9322 8.8611 18.9322C10.1329 18.9322 11.1638 17.8959 11.1638 16.6174C11.1638 16.3652 11.1237 16.1224 11.0495 15.8951C10.9528 15.5988 10.983 15.2588 11.2028 15.0378L13.3046 12.925Z" fill="url(#paint0_linear_1_6108)"/>
</g>
<defs>
<linearGradient id="paint0_linear_1_6108" x1="1.25235" y1="20.9286" x2="15.5851" y2="12.7811" gradientUnits="userSpaceOnUse">
<stop stop-color="#6DD2F3"/>
<stop offset="1" stop-color="#00B2FF"/>
</linearGradient>
<clipPath id="clip0_1_6108">
<rect width="85" height="25" fill="white" transform="translate(0 0.5)"/>
</clipPath>
</defs>
</svg>
