<svg width="16" height="17" viewBox="0 0 16 17" fill="none" xmlns="http://www.w3.org/2000/svg">
<g clip-path="url(#clip0_1_6070)">
<path d="M14.8982 11.9748V14.0716C14.899 14.2663 14.8592 14.4589 14.7812 14.6373C14.7032 14.8156 14.5888 14.9757 14.4454 15.1073C14.302 15.2389 14.1326 15.3391 13.9482 15.4014C13.7638 15.4638 13.5685 15.487 13.3746 15.4694C11.2239 15.2358 9.15801 14.5008 7.34292 13.3238C5.65421 12.2507 4.22248 10.819 3.1494 9.13021C1.96821 7.30688 1.23314 5.23094 1.00372 3.07058C0.986254 2.87731 1.00922 2.68251 1.07117 2.4986C1.13311 2.31469 1.23267 2.14569 1.3635 2.00237C1.49433 1.85904 1.65358 1.74453 1.83109 1.66612C2.00861 1.58771 2.20051 1.54712 2.39457 1.54694H4.49133C4.83052 1.5436 5.15935 1.66371 5.41653 1.88489C5.67371 2.10606 5.84169 2.41321 5.88917 2.74908C5.97766 3.42009 6.14179 4.07893 6.37841 4.71304C6.47244 4.9632 6.4928 5.23508 6.43705 5.49645C6.38131 5.75782 6.25181 5.99773 6.0639 6.18776L5.17627 7.07539C6.17122 8.82517 7.62001 10.274 9.36978 11.2689L10.2574 10.3813C10.4474 10.1934 10.6874 10.0639 10.9487 10.0081C11.2101 9.95238 11.482 9.97273 11.7321 10.0668C12.3662 10.3034 13.0251 10.4675 13.6961 10.556C14.0356 10.6039 14.3457 10.7749 14.5673 11.0365C14.789 11.2981 14.9067 11.6321 14.8982 11.9748Z" stroke="#6E7A80" stroke-width="1.39784" stroke-linecap="round" stroke-linejoin="round"/>
</g>
<defs>
<clipPath id="clip0_1_6070">
<rect width="16" height="16" fill="white" transform="translate(0 0.546875)"/>
</clipPath>
</defs>
</svg>
