<svg width="224" height="198" viewBox="0 0 224 198" fill="none" xmlns="http://www.w3.org/2000/svg">
<path d="M88.3527 143.157L69.2038 116.679L65.7852 117.965L86.0135 145.936L88.3527 143.157Z" fill="url(#paint0_linear_1_1053)"/>
<path d="M65.7852 117.965L56.6436 121.315L79.7818 153.31L86.0135 145.936L65.7852 117.965Z" fill="url(#paint1_linear_1_1053)"/>
<g filter="url(#filter0_f_1_1053)">
<path d="M88.3519 143.157L69.2028 116.678L65.7842 117.965L86.0128 145.936L88.3519 143.157Z" fill="#455A64"/>
</g>
<path d="M78.8547 156.947L52.9471 121.123C52.4777 120.474 52.6214 119.579 53.2704 119.11C53.9193 118.64 54.814 118.784 55.2833 119.433L81.1909 155.257C81.6603 155.906 81.5166 156.801 80.8676 157.27C80.2187 157.74 79.3239 157.596 78.8547 156.947Z" fill="url(#paint2_linear_1_1053)"/>
<path d="M53.838 122.357C41.4285 125.699 32.4296 137.446 31.17 141.718L35.6571 141.636C29.6218 146.001 24.5602 160.733 23.1992 169.921L65.8352 139.083L53.7731 122.404L53.838 122.357Z" fill="url(#paint3_linear_1_1053)"/>
<path d="M77.9163 155.65C70.8573 166.39 56.8834 171.258 52.4322 171.117L53.9155 166.881C47.8803 171.246 32.3053 171.44 23.1533 169.855L65.7893 139.018L77.8514 155.697L77.9163 155.65Z" fill="url(#paint4_linear_1_1053)"/>
<path d="M58.2522 128.455C50.3975 130.578 44.725 138.041 43.8286 140.765L46.6493 140.702C42.8204 143.471 39.5983 152.82 38.7761 158.653L65.8375 139.08L58.1873 128.502L58.2522 128.455Z" fill="url(#paint5_linear_1_1053)"/>
<path d="M73.5528 149.612C69.0773 156.407 60.2133 159.458 57.3457 159.456L58.289 156.797C54.4602 159.566 44.5732 159.699 38.7761 158.653L65.8375 139.08L73.4879 149.659L73.5528 149.612Z" fill="url(#paint6_linear_1_1053)"/>
<path d="M178.099 82.2029L166.506 66.1729L153.397 75.6541L78.5732 129.773L92.5595 149.112C94.7654 152.163 99.0149 152.845 102.065 150.639L155.538 111.963C165.904 104.565 173.71 94.1746 178.099 82.2029Z" fill="url(#paint7_linear_1_1053)"/>
<path d="M154.961 50.2065C142.218 50.6262 129.906 54.7863 119.588 62.2492L66.1147 100.925C63.0647 103.132 62.3821 107.381 64.5881 110.432L78.5744 129.771L153.398 75.6529L166.507 66.1717L154.961 50.2065Z" fill="url(#paint8_linear_1_1053)"/>
<path d="M178.098 82.2029L183.514 67.4133C185.08 63.0186 184.244 58.5823 181.803 55.2075L166.553 66.2379L178.098 82.2029Z" fill="url(#paint9_linear_1_1053)"/>
<path d="M181.803 55.2075C179.363 51.8328 175.364 49.5844 170.747 49.7607L155.007 50.2727L166.599 66.3026L181.85 55.2723L181.803 55.2075Z" fill="url(#paint10_linear_1_1053)"/>
<path d="M113.552 104.473C119.67 112.932 131.486 114.83 139.944 108.712C148.402 102.595 150.3 90.7779 144.183 82.319C138.066 73.8601 126.25 71.9622 117.791 78.08C109.333 84.1977 107.435 96.0144 113.552 104.473Z" fill="#455A64"/>
<path d="M137.785 105.727C141.029 103.38 143.058 100.034 143.763 96.3618C143.503 96.5496 143.308 96.6904 143.049 96.8781C135.196 102.558 125.729 104.364 116.866 102.769C121.912 109.2 131.165 110.514 137.785 105.727Z" fill="url(#paint11_linear_1_1053)"/>
<path d="M143.049 96.8781C143.308 96.6904 143.568 96.5026 143.763 96.3618C144.359 93.3602 144.079 90.1031 142.721 87.1317C142.397 87.3663 142.119 87.6659 141.73 87.9476C134.202 93.3923 123.247 90.955 118.358 84.1937C118.123 83.8692 117.841 83.4798 117.672 83.1084C112.935 88.3132 112.219 96.3434 116.537 102.314C116.678 102.509 116.772 102.639 116.913 102.833C125.776 104.429 135.196 102.558 143.049 96.8781Z" fill="url(#paint12_linear_1_1053)"/>
<path d="M141.73 87.9479C142.054 87.7132 142.444 87.4315 142.721 87.132C142.353 86.2124 141.807 85.3217 141.197 84.478C136.269 77.6637 126.764 76.137 119.95 81.0655C119.106 81.6756 118.309 82.3508 117.672 83.1087C117.753 83.4483 118.076 83.8046 118.358 84.194C123.755 91.6574 134.532 93.6047 141.73 87.9479Z" fill="url(#paint13_linear_1_1053)"/>
<path d="M129.757 130.708L105.292 148.403L108.906 153.4L130.775 137.582L129.757 130.708Z" fill="url(#paint14_linear_1_1053)"/>
<path d="M129.881 166.004C132.607 164.033 134.058 160.71 133.573 157.305L130.728 137.518L108.923 153.289L119.202 167.501C120.845 169.773 123.976 170.276 126.247 168.633L129.881 166.004Z" fill="url(#paint15_linear_1_1053)"/>
<path d="M93.7596 80.9293L69.294 98.6247L65.7271 93.6924L87.5968 77.8745L93.7596 80.9293Z" fill="url(#paint16_linear_1_1053)"/>
<path d="M60.2791 69.7589C63.0047 67.7875 66.6151 67.4496 69.6965 68.977L87.5969 77.8747L65.7918 93.6459L55.5134 79.4331C53.8707 77.1617 54.3737 74.0302 56.645 72.3874L60.2791 69.7589Z" fill="url(#paint17_linear_1_1053)"/>
<path opacity="0.15" d="M99.7815 117.002L94.3573 150.776C93.8341 150.463 93.3109 150.149 91.5274 147.683C89.7439 145.217 79.5122 131.069 79.5122 131.069L99.7815 117.002Z" fill="#8FA3AD"/>
<path d="M73.299 133.685C72.2195 132.192 72.5608 130.067 74.0533 128.988L94.5597 114.156C96.0523 113.076 98.177 113.418 99.2564 114.91C100.336 116.403 99.9946 118.528 98.502 119.607L77.9956 134.439C76.4382 135.565 74.3784 135.177 73.299 133.685Z" fill="#30464E"/>
<defs>
<filter id="filter0_f_1_1053" x="61.7842" y="112.678" width="30.5676" height="37.2578" filterUnits="userSpaceOnUse" color-interpolation-filters="sRGB">
<feFlood flood-opacity="0" result="BackgroundImageFix"/>
<feBlend mode="normal" in="SourceGraphic" in2="BackgroundImageFix" result="shape"/>
<feGaussianBlur stdDeviation="2" result="effect1_foregroundBlur_1_1053"/>
</filter>
<linearGradient id="paint0_linear_1_1053" x1="67.4134" y1="118.331" x2="87.2856" y2="151.891" gradientUnits="userSpaceOnUse">
<stop stop-color="#546E7A"/>
<stop offset="1" stop-color="#2C3D45"/>
</linearGradient>
<linearGradient id="paint1_linear_1_1053" x1="67.4134" y1="118.331" x2="87.2856" y2="151.891" gradientUnits="userSpaceOnUse">
<stop stop-color="#546E7A"/>
<stop offset="1" stop-color="#2C3D45"/>
</linearGradient>
<linearGradient id="paint2_linear_1_1053" x1="70.9466" y1="143.502" x2="57.257" y2="124.514" gradientUnits="userSpaceOnUse">
<stop stop-color="#34454E"/>
<stop offset="1" stop-color="#455A64"/>
</linearGradient>
<linearGradient id="paint3_linear_1_1053" x1="31.2059" y1="149.244" x2="68.0002" y2="162.125" gradientUnits="userSpaceOnUse">
<stop stop-color="#FF5E2C"/>
<stop offset="1" stop-color="#6F1C02"/>
</linearGradient>
<linearGradient id="paint4_linear_1_1053" x1="31.206" y1="149.244" x2="68.0003" y2="162.125" gradientUnits="userSpaceOnUse">
<stop stop-color="#FF5E2C"/>
<stop offset="1" stop-color="#6F1C02"/>
</linearGradient>
<linearGradient id="paint5_linear_1_1053" x1="44.896" y1="143.942" x2="72.2731" y2="154.098" gradientUnits="userSpaceOnUse">
<stop stop-color="#FEC807"/>
<stop offset="1" stop-color="#824102"/>
</linearGradient>
<linearGradient id="paint6_linear_1_1053" x1="44.896" y1="143.942" x2="72.2731" y2="154.098" gradientUnits="userSpaceOnUse">
<stop stop-color="#FEC807"/>
<stop offset="1" stop-color="#824102"/>
</linearGradient>
<linearGradient id="paint7_linear_1_1053" x1="119.519" y1="99.3455" x2="138.066" y2="124.515" gradientUnits="userSpaceOnUse">
<stop stop-color="#C4325B"/>
<stop offset="1" stop-color="#992747"/>
</linearGradient>
<linearGradient id="paint8_linear_1_1053" x1="107.598" y1="70.6408" x2="127.47" y2="97.5767" gradientUnits="userSpaceOnUse">
<stop stop-color="#FF779D"/>
<stop offset="0.453125" stop-color="#CA2D59"/>
<stop offset="1" stop-color="#C2335B"/>
</linearGradient>
<linearGradient id="paint9_linear_1_1053" x1="164.558" y1="49.4453" x2="184.43" y2="77.2641" gradientUnits="userSpaceOnUse">
<stop stop-color="#637E8B"/>
<stop offset="1" stop-color="#546E7A" stop-opacity="0"/>
</linearGradient>
<linearGradient id="paint10_linear_1_1053" x1="164.558" y1="49.4453" x2="184.43" y2="77.2641" gradientUnits="userSpaceOnUse">
<stop stop-color="#637E8B"/>
<stop offset="1" stop-color="#546E7A" stop-opacity="0"/>
</linearGradient>
<linearGradient id="paint11_linear_1_1053" x1="109.507" y1="78.9049" x2="130.871" y2="118.643" gradientUnits="userSpaceOnUse">
<stop stop-color="#4FCFFF"/>
<stop offset="1" stop-color="#2686AA"/>
</linearGradient>
<linearGradient id="paint12_linear_1_1053" x1="109.507" y1="78.9049" x2="130.871" y2="118.643" gradientUnits="userSpaceOnUse">
<stop stop-color="#4FCFFF"/>
<stop offset="1" stop-color="#2686AA"/>
</linearGradient>
<linearGradient id="paint13_linear_1_1053" x1="109.507" y1="78.9052" x2="130.871" y2="118.643" gradientUnits="userSpaceOnUse">
<stop stop-color="#4FCFFF"/>
<stop offset="1" stop-color="#2686AA"/>
</linearGradient>
<linearGradient id="paint14_linear_1_1053" x1="114.22" y1="141.295" x2="129.575" y2="167.407" gradientUnits="userSpaceOnUse">
<stop stop-color="#2C6B83"/>
<stop offset="0.380208" stop-color="#2686AA"/>
<stop offset="0.484375" stop-color="#3AA2C9"/>
</linearGradient>
<linearGradient id="paint15_linear_1_1053" x1="114.22" y1="141.295" x2="129.575" y2="167.407" gradientUnits="userSpaceOnUse">
<stop stop-color="#2C6B83"/>
<stop offset="0.380208" stop-color="#2686AA"/>
<stop offset="0.484375" stop-color="#3AA2C9"/>
</linearGradient>
<linearGradient id="paint16_linear_1_1053" x1="49.1713" y1="68.7568" x2="67.5295" y2="112.576" gradientUnits="userSpaceOnUse">
<stop stop-color="#4FCFFF"/>
<stop offset="1" stop-color="#2686AA"/>
</linearGradient>
<linearGradient id="paint17_linear_1_1053" x1="49.1714" y1="68.757" x2="67.5297" y2="112.576" gradientUnits="userSpaceOnUse">
<stop stop-color="#4FCFFF"/>
<stop offset="1" stop-color="#2686AA"/>
</linearGradient>
</defs>
</svg>
