<svg width="181" height="187" viewBox="0 0 181 187" fill="none" xmlns="http://www.w3.org/2000/svg">
<path opacity="0.1" d="M159 32.9998C142.423 19.0728 152.298 28.5672 152.5 31.9272C165.5 71.4995 152.142 100.22 115 117.404L75.5207 101.938L74.2004 103.306L59.016 118.96L57.5542 117.404C56.1395 115.942 53.876 115.942 52.4613 117.404L1.06102 170.45C-0.353673 171.911 -0.353673 174.269 1.06102 175.684L11.011 185.963C11.2939 186.246 11.5769 186.434 11.8598 186.623C11.9541 186.67 12.0484 186.717 12.1899 186.764C12.4257 186.859 12.6143 186.906 12.8501 186.953C12.9444 186.953 13.0859 187 13.1802 187C13.2745 187 13.416 187 13.5103 187C13.6046 187 13.746 187 13.8404 187C14.642 186.906 15.4437 186.576 16.0567 185.915L69.0609 132.3C70.4755 130.839 72.0317 129.243 70.617 127.829L69.0609 126.225L81.6203 111.744L82.9887 112.656C103.266 129.961 136.558 127.254 155.515 107.639C175.745 86.9393 179.136 53.7937 159 32.9998Z" fill="black"/>
<path d="M85.5174 101.373L62.2222 124.666C61.6092 125.279 60.5718 125.279 59.9116 124.666L55.3846 120.139C54.7715 119.526 54.7715 118.489 55.3846 117.829L78.6798 94.5359C79.2928 93.9229 80.3302 93.9229 80.9904 94.5359L85.5174 99.0625C86.1776 99.6754 86.1776 100.713 85.5174 101.373Z" fill="#C7BFBF"/>
<path d="M81.2731 94.9599C80.6601 94.677 79.9056 94.7713 79.3869 95.2428L56.0917 118.536C55.573 119.054 55.4787 119.809 55.8088 120.422C56.4218 120.705 57.1763 120.61 57.695 120.139L80.9902 96.846C81.5089 96.3273 81.6032 95.5729 81.2731 94.9599Z" fill="white"/>
<path d="M62.2224 124.665L85.5176 101.372C86.1306 100.759 86.1306 99.722 85.5176 99.0619L83.9142 97.4588C83.3012 96.8458 82.2638 96.8458 81.6036 97.4588L58.3084 120.705C57.6954 121.318 57.6954 122.355 58.3084 123.015L59.9117 124.618C60.5248 125.278 61.5622 125.278 62.2224 124.665Z" fill="#948E8E"/>
<path d="M62.2226 124.666L85.5178 101.373C86.0365 100.854 86.1309 100.053 85.8008 99.4396C85.1877 99.1095 84.3861 99.2038 83.8674 99.7225L60.5722 123.015C60.0535 123.534 59.9591 124.336 60.2892 124.949C60.9023 125.232 61.7039 125.184 62.2226 124.666Z" fill="#706E6E"/>
<path d="M61.7984 124.241C61.5626 124.477 61.4212 124.759 61.374 125.089C61.7041 125.042 61.987 124.901 62.2228 124.665L85.518 101.372C85.7538 101.136 85.8953 100.853 85.9424 100.523C85.6123 100.571 85.3294 100.712 85.0936 100.948L61.7984 124.241Z" fill="#C7BFBF"/>
<path d="M78.5383 96.9871C77.9252 96.3741 76.8878 96.3741 76.2276 96.9871L72.125 101.089C73.1153 102.315 74.1999 103.494 75.3788 104.626C76.5577 105.804 77.7366 106.889 78.9627 107.879L83.0653 103.777C83.6783 103.164 83.6783 102.127 83.0653 101.466L78.5383 96.9871Z" fill="#706E6E"/>
<path d="M67.9753 126.929L17.3767 177.428C16.0091 178.796 13.7456 178.796 12.3781 177.428L2.56959 167.621C1.20206 166.253 1.20206 163.99 2.56959 162.623L53.1211 112.123C54.4886 110.756 56.7521 110.756 58.1196 112.123L67.9281 121.931C69.3428 123.298 69.3428 125.514 67.9753 126.929Z" fill="#FF346D"/>
<path d="M68.7302 123.063C68.6831 122.968 68.6359 122.874 68.5888 122.733C68.4473 122.403 68.2115 122.12 67.9758 121.884L63.4487 117.357L60.9495 114.858L5.39941 170.403L7.8987 172.902L12.4257 177.429C12.6615 177.664 12.9916 177.9 13.2745 178.042C13.3688 178.089 13.4631 178.136 13.6046 178.183C13.8404 178.277 14.029 178.325 14.2648 178.372C14.3591 178.372 14.5006 178.419 14.5949 178.419C14.6892 178.419 14.8307 178.419 14.925 178.419C15.0193 178.419 15.1608 178.419 15.2551 178.419C16.0567 178.325 16.8112 177.995 17.4243 177.382L67.9758 126.882C68.1644 126.693 68.3058 126.505 68.4473 126.316C68.6359 126.033 68.7774 125.703 68.8717 125.373C68.966 125.043 69.0132 124.713 69.0132 124.383C69.0132 123.959 68.9189 123.487 68.7302 123.063Z" fill="#D12F5D"/>
<path d="M67.9754 121.884L64.7688 118.678C66.1363 120.045 66.1363 122.308 64.7688 123.676L14.2173 174.222C12.8498 175.59 10.5863 175.59 9.21875 174.222L12.4254 177.429C13.7929 178.796 16.0564 178.796 17.4239 177.429L67.9754 126.929C69.343 125.515 69.343 123.299 67.9754 121.884Z" fill="#A5274A"/>
<path d="M67.9753 121.884L67.4566 121.365C68.8241 122.733 68.8241 124.996 67.4566 126.363L16.8579 176.863C15.4904 178.23 13.2269 178.23 11.8594 176.863L12.3781 177.381C13.7456 178.749 16.0091 178.749 17.3767 177.381L67.9281 126.882C69.3428 125.515 69.3428 123.298 67.9753 121.884Z" fill="#771E37"/>
<path fill-rule="evenodd" clip-rule="evenodd" d="M168.701 65.0183C168.701 94.6792 144.654 118.724 114.99 118.724C85.3265 118.724 61.2793 94.6792 61.2793 65.0183C61.2793 35.3574 85.3265 11.3125 114.99 11.3125C144.654 11.3125 168.701 35.3574 168.701 65.0183ZM156.771 65.0186C156.771 88.0911 138.065 106.795 114.99 106.795C91.9157 106.795 73.21 88.0911 73.21 65.0186C73.21 41.9461 91.9157 23.2422 114.99 23.2422C138.065 23.2422 156.771 41.9461 156.771 65.0186Z" fill="url(#paint0_linear_1_993)"/>
<path d="M58.167 112.076C57.9312 111.84 57.6483 111.651 57.3653 111.463L2.00391 166.819C2.14537 167.102 2.334 167.338 2.56978 167.573L3.70153 168.705L59.2516 113.16L58.167 112.076Z" fill="#FF799F"/>
<defs>
<linearGradient id="paint0_linear_1_993" x1="61.2793" y1="11.3125" x2="123.271" y2="141.349" gradientUnits="userSpaceOnUse">
<stop offset="0.162224" stop-color="#70D8FF"/>
<stop offset="0.328125" stop-color="#3389A9"/>
<stop offset="1" stop-color="#1F7291"/>
</linearGradient>
</defs>
</svg>
