<svg width="25" height="25" viewBox="0 0 25 25" fill="none" xmlns="http://www.w3.org/2000/svg">
<g clip-path="url(#clip0_64_117)">
<path d="M3.63232 24.2749C1.97547 24.2749 0.632324 22.9318 0.632324 21.2749V3.2749C0.632324 1.61805 1.97547 0.274902 3.63232 0.274902H21.6323C23.2892 0.274902 24.6323 1.61805 24.6323 3.2749V21.2749C24.6323 22.9318 23.2892 24.2749 21.6323 24.2749H3.63232Z" fill="#FFD600"/>
<path d="M16.324 18.2394C16.7854 18.9887 17.2867 19.7067 18.3487 19.7067C19.2407 19.7067 19.7087 19.2634 19.7087 18.6501C19.7087 17.9161 19.2247 17.6554 18.2434 17.2281L17.7054 16.9987C16.1527 16.3401 15.12 15.5147 15.12 13.7714C15.12 12.1647 16.35 10.9421 18.272 10.9421C19.6407 10.9421 20.624 11.4161 21.3334 12.6574L19.6574 13.7287C19.2887 13.0701 18.89 12.8107 18.272 12.8107C17.6414 12.8107 17.242 13.2087 17.242 13.7287C17.242 14.3714 17.642 14.6314 18.5654 15.0294L19.1034 15.2587C20.9334 16.0381 21.9654 16.8341 21.9654 18.6234C21.9654 20.5514 20.4427 21.6081 18.3987 21.6081C16.3994 21.6081 15.264 20.6047 14.632 19.3627L16.324 18.2394ZM8.6 18.2941C8.93734 18.8981 9.45 19.3627 10.1873 19.3627C10.8927 19.3627 11.2987 19.0841 11.2987 18.0007V10.9414H13.5207V18.3421C13.5207 20.5867 12.2187 21.6081 10.3173 21.6081C8.59934 21.6081 7.35934 20.4441 6.854 19.3627L8.6 18.2941Z" fill="#000001"/>
</g>
<defs>
<clipPath id="clip0_64_117">
<rect width="24" height="24" fill="white" transform="translate(0.632324 0.274902)"/>
</clipPath>
</defs>
</svg>
