<svg width="1200" height="1200" viewBox="0 0 1200 1200" fill="none" xmlns="http://www.w3.org/2000/svg">
<mask id="mask0_1_943" style="mask-type:luminance" maskUnits="userSpaceOnUse" x="0" y="0" width="1200" height="1200">
<path d="M1200 0H0V1200H1200V0Z" fill="white"/>
</mask>
<g mask="url(#mask0_1_943)">
<path d="M135.75 128V245.25C135.75 245.25 136 263.5 157.5 263.5C179 263.5 1072.25 263 1072.25 263" stroke="#414B50" stroke-width="3"/>
<path d="M1072.25 263C1072.25 263 1090.75 265.25 1090.75 281.5C1090.75 297.75 1091.12 404.375 1091.12 404.375" stroke="#414B50" stroke-width="3"/>
<path d="M1091 470L1090.75 595.75C1090.75 595.75 1090.25 613.75 1074 613.75C1057.75 613.75 154 613.375 154 613.375C154 613.375 135.875 614 135.875 631.5C135.875 649 136 754.875 136 754.875" stroke="#414B50" stroke-width="3"/>
<path d="M136 820.75V945.5C136 945.5 137.25 964 157.5 964C177.75 964 1074.25 963 1074.25 963C1074.25 963 1091 963.25 1091 982.25C1091 1001.25 1091 1109.75 1091 1109.75" stroke="#414B50" stroke-width="2"/>
<path d="M135.806 85.2982V96.1882H137.866V80.8682H136.336C136.066 82.0582 135.656 82.8082 135.106 83.1282C134.556 83.4482 133.576 83.6782 132.186 83.8182V85.2982H135.806Z" fill="#898D8F" stroke="#414B50" stroke-linejoin="round"/>
<path d="M136.08 71.0347C145.702 71.0347 153.514 78.8469 153.514 88.4688C153.514 98.0908 145.702 105.903 136.08 105.903C126.458 105.903 118.646 98.0908 118.646 88.4688C118.646 78.8469 126.458 71.0347 136.08 71.0347Z" stroke="#414B50" stroke-width="4.7"/>
<path d="M1085.77 446.188H1096.33V444.358H1087.93C1088.11 443.598 1088.56 442.908 1089.28 442.288C1089.68 441.938 1090.23 441.568 1090.93 441.178L1092.41 440.368C1093.7 439.638 1094.6 439.028 1095.1 438.518C1095.97 437.648 1096.4 436.588 1096.4 435.358C1096.4 434.188 1096 433.128 1095.18 432.178C1094.37 431.228 1093.08 430.748 1091.32 430.748C1089.2 430.748 1087.72 431.498 1086.88 432.988C1086.41 433.828 1086.17 434.928 1086.14 436.258H1088.11C1088.14 435.308 1088.29 434.558 1088.56 434.018C1089.07 433.018 1089.99 432.518 1091.31 432.518C1092.21 432.518 1092.92 432.778 1093.46 433.308C1094 433.828 1094.26 434.548 1094.26 435.438C1094.26 436.208 1093.97 436.888 1093.38 437.488C1093.01 437.868 1092.36 438.328 1091.44 438.858L1089.38 440.058C1087.99 440.858 1087.07 441.748 1086.59 442.728C1086.11 443.708 1085.84 444.868 1085.77 446.188Z" fill="#898D8F" stroke="#414B50" stroke-linejoin="round"/>
<path d="M1091.08 421.035C1100.7 421.035 1108.51 428.847 1108.51 438.469C1108.51 448.091 1100.7 455.903 1091.08 455.903C1081.46 455.903 1073.65 448.091 1073.65 438.469C1073.65 428.847 1081.46 421.035 1091.08 421.035Z" stroke="#414B50" stroke-width="4.7"/>
<path d="M135.536 796.608C137.316 796.608 138.686 796.148 139.656 795.218C140.626 794.298 141.106 793.098 141.106 791.638C141.106 790.718 140.876 789.938 140.426 789.308C139.966 788.678 139.336 788.248 138.526 788.028C139.026 787.818 139.436 787.528 139.756 787.168C140.256 786.578 140.516 785.808 140.516 784.868C140.516 783.538 140.086 782.528 139.226 781.828C138.366 781.128 137.156 780.788 135.586 780.788C133.596 780.788 132.216 781.498 131.426 782.928C130.966 783.738 130.736 784.708 130.736 785.858H132.656C132.686 784.978 132.836 784.308 133.116 783.838C133.606 782.978 134.496 782.548 135.786 782.548C136.516 782.548 137.146 782.758 137.686 783.168C138.236 783.588 138.506 784.178 138.506 784.938C138.506 785.968 138.096 786.688 137.286 787.088C136.816 787.318 136.226 787.438 135.496 787.438C135.336 787.438 135.196 787.428 135.056 787.418C134.926 787.418 134.756 787.398 134.556 787.378V789.088C134.686 789.078 134.826 789.078 134.956 789.068C135.086 789.068 135.216 789.068 135.346 789.068C136.496 789.068 137.406 789.278 138.046 789.698C138.696 790.118 139.026 790.868 139.026 791.928C139.026 792.778 138.716 793.488 138.096 794.028C137.486 794.578 136.666 794.848 135.646 794.848C134.336 794.848 133.436 794.438 132.926 793.628C132.646 793.178 132.456 792.458 132.376 791.458H130.356C130.356 792.898 130.766 794.108 131.586 795.108C132.406 796.108 133.726 796.608 135.536 796.608Z" fill="#898D8F" stroke="#414B50" stroke-linejoin="round"/>
<path d="M136.137 771.263C145.759 771.263 153.571 779.075 153.571 788.697C153.571 798.319 145.759 806.131 136.137 806.131C126.515 806.131 118.703 798.319 118.703 788.697C118.703 779.075 126.515 771.263 136.137 771.263Z" stroke="#414B50" stroke-width="4.7"/>
<path d="M1090.83 1121.03C1100.45 1121.03 1108.26 1128.84 1108.26 1138.47C1108.26 1148.09 1100.45 1155.9 1090.83 1155.9C1081.21 1155.9 1073.4 1148.09 1073.4 1138.47C1073.4 1128.84 1081.21 1121.03 1090.83 1121.03Z" stroke="#414B50" stroke-width="4.7"/>
<path d="M1087.17 1140.74L1092.1 1133.76V1140.74H1087.17ZM1094.07 1146.19V1142.43H1096.33V1140.74H1094.07V1130.76H1092.44L1085.39 1140.54V1142.43H1092.13V1146.19H1094.07Z" fill="#898D8F" stroke="#414B50" stroke-linejoin="round"/>
</g>
</svg>
