<svg width="29" height="29" viewBox="0 0 29 29" fill="none" xmlns="http://www.w3.org/2000/svg">
<path d="M14.6088 16.5989C15.9026 16.5989 16.9514 15.5501 16.9514 14.2562C16.9514 12.9624 15.9026 11.9136 14.6088 11.9136C13.3149 11.9136 12.2661 12.9624 12.2661 14.2562C12.2661 15.5501 13.3149 16.5989 14.6088 16.5989Z" fill="#00D8FF"/>
<path d="M14.6089 19.6227C11.3189 19.6227 8.44427 19.2354 6.29293 18.498C4.8976 18.022 3.71227 17.3874 2.8676 16.664C1.9716 15.8987 1.49561 15.0634 1.49561 14.256C1.49561 12.7067 3.19427 11.19 6.0456 10.2007C8.37893 9.38871 11.4216 8.93604 14.6042 8.93604C17.7309 8.93604 20.7316 9.3747 23.0509 10.1774C24.4089 10.644 25.5522 11.2507 26.3642 11.9227C27.2462 12.66 27.7129 13.4674 27.7129 14.256C27.7129 15.866 25.8136 17.4947 22.7522 18.5074C20.5869 19.226 17.6936 19.6227 14.6089 19.6227ZM14.6089 10.056C11.5896 10.056 8.60293 10.4947 6.41893 11.2554C3.79627 12.17 2.62027 13.4207 2.62027 14.256C2.62027 15.124 3.88493 16.4914 6.65693 17.4387C8.6916 18.134 11.4449 18.5027 14.6089 18.5027C17.5769 18.5027 20.3442 18.1294 22.4022 17.4434C25.2816 16.4867 26.5976 15.1194 26.5976 14.256C26.5976 13.8127 26.2616 13.29 25.6502 12.7814C24.9456 12.1934 23.9189 11.6567 22.6916 11.232C20.4842 10.476 17.6142 10.056 14.6089 10.056Z" fill="#00D8FF"/>
<path d="M9.29364 25.9318C8.81764 25.9318 8.39764 25.8291 8.04297 25.6238C6.70364 24.8491 6.23697 22.6184 6.80164 19.6551C7.26364 17.2238 8.39297 14.3678 9.9843 11.6098C11.5476 8.9031 13.4236 6.5231 15.2763 4.91309C16.3589 3.97043 17.4556 3.27976 18.4449 2.91576C19.5229 2.51909 20.4563 2.51909 21.1376 2.91109C22.5329 3.71376 22.9949 6.17777 22.3416 9.33244C21.8796 11.5724 20.7783 14.2744 19.2383 16.9484C17.5956 19.7951 15.8223 22.0911 14.1096 23.5891C12.9989 24.5598 11.8556 25.2691 10.8103 25.6378C10.2643 25.8338 9.75097 25.9318 9.29364 25.9318ZM10.465 11.8898L10.9503 12.1698C9.44297 14.7831 8.32764 17.5878 7.8983 19.8651C7.3803 22.5951 7.87964 24.2378 8.5983 24.6531C8.77563 24.7558 9.00897 24.8118 9.29364 24.8118C10.2223 24.8118 11.6829 24.2238 13.3723 22.7491C14.9916 21.3351 16.6856 19.1324 18.2676 16.3931C19.7516 13.8218 20.8063 11.2364 21.2449 9.1131C21.8563 6.14043 21.3289 4.32043 20.5776 3.88643C20.1949 3.66709 19.5743 3.69509 18.8276 3.97043C17.9643 4.28776 16.9889 4.90843 16.0089 5.76243C14.2496 7.29311 12.4529 9.57043 10.9503 12.1744L10.465 11.8898Z" fill="#00D8FF"/>
<path d="M19.9243 25.9462C18.655 25.9462 17.045 25.1808 15.365 23.7342C13.489 22.1195 11.5803 19.7162 9.98435 16.9582C8.41635 14.2515 7.29635 11.4375 6.82502 9.02481C6.54969 7.61548 6.49835 6.32281 6.67569 5.28214C6.87169 4.14814 7.33369 3.34081 8.01969 2.94414C9.41035 2.1368 11.7763 2.96747 14.1843 5.10947C15.8923 6.62614 17.6843 8.93148 19.229 11.6008C20.8763 14.4475 21.9823 17.1308 22.421 19.3615C22.7057 20.8082 22.7523 22.1522 22.5517 23.2442C22.337 24.4062 21.8517 25.2322 21.1517 25.6382C20.8017 25.8435 20.3863 25.9462 19.9243 25.9462ZM10.955 16.3982C12.467 19.0115 14.343 21.3775 16.0977 22.8848C18.2023 24.6955 19.873 25.0875 20.5963 24.6675C21.3477 24.2335 21.8983 22.4555 21.329 19.5808C20.909 17.4715 19.8497 14.9048 18.263 12.1655C16.7743 9.59414 15.0617 7.38681 13.4423 5.94947C11.1743 3.93347 9.33569 3.48081 8.58435 3.91481C8.20169 4.13414 7.91702 4.68947 7.78169 5.47347C7.62769 6.37881 7.67435 7.53614 7.92635 8.81014C8.37435 11.1015 9.44768 13.7941 10.955 16.3982Z" fill="#00D8FF"/>
</svg>
