<svg width="20" height="15" viewBox="0 0 20 15" fill="none" xmlns="http://www.w3.org/2000/svg">
<g clip-path="url(#clip0_1_6076)">
<path d="M2.47769 11.8396V3.46788L6.97824 7.62686L2.49324 11.9902C2.48316 11.9418 2.47769 11.8916 2.47769 11.8396ZM9.00806 9.49916C9.6794 10.1192 10.7193 10.1203 11.3907 9.4992L12.5986 8.38059L16.8821 12.5689H3.50527L7.80646 8.38679L9.00806 9.49916ZM3.15527 1.39648C2.14946 1.39648 1.3501 2.24078 1.3501 3.24692V11.8396C1.3501 12.845 2.14874 13.6965 3.15527 13.6965H17.2242C18.2308 13.6965 19.0294 12.845 19.0294 11.8396V3.24692C19.0294 2.24079 18.2301 1.39648 17.2242 1.39648H3.15527ZM3.15527 2.52407H17.2242C17.2383 2.52407 17.2523 2.52456 17.2662 2.52553L10.6245 8.67129C10.4915 8.79433 10.3427 8.85069 10.1997 8.8507C10.0566 8.8507 9.90763 8.79436 9.77428 8.67121L3.11981 2.52522C3.13162 2.52446 3.14344 2.52407 3.15527 2.52407ZM13.4204 7.62043L17.9017 3.47458V11.8395C17.9017 11.8879 17.8974 11.9347 17.8891 11.9798L13.4204 7.62043Z" fill="#6E7A80" stroke="#6E7A80" stroke-width="0.3"/>
</g>
<defs>
<clipPath id="clip0_1_6076">
<rect width="19" height="14" fill="white" transform="translate(0.5 0.546875)"/>
</clipPath>
</defs>
</svg>
