<svg width="184" height="176" viewBox="0 0 184 176" fill="none" xmlns="http://www.w3.org/2000/svg">
<g clip-path="url(#clip0_1_1032)">
<path d="M21.5138 7.72922L21.8084 7.84746L2.72008 101.313L2.01312 101.194C-0.461293 100.662 -0.166731 99.5391 0.3635 96.8196L16.5061 12.4586C16.565 12.2221 16.6239 11.9266 16.6239 11.631C17.2131 8.43866 18.5681 6.42863 21.5138 7.72922Z" fill="url(#paint0_linear_1_1032)"/>
<path d="M21.8676 7.90683L128.267 61.1719C129.269 61.7039 129.858 62.8272 129.681 63.9504L113.126 156.588L2.7793 101.313L19.2165 9.20739C19.4521 8.02503 20.7482 7.31565 21.8676 7.90683Z" fill="url(#paint1_linear_1_1032)"/>
<path d="M6.90332 99.243L22.3978 12.3398L125.911 64.1269L110.357 151.089L6.90332 99.243Z" fill="url(#paint2_linear_1_1032)"/>
<path opacity="0.3" d="M67.2318 34.7453L14.3855 57.21L17.0955 41.9577L51.9729 27.1191L67.2318 34.7453ZM125.911 64.1268L77.424 39.8294L12.5591 67.4374L6.90332 99.2428L36.3606 113.963L123.613 76.8371L125.911 64.1268ZM111.948 142.044L121.08 90.9071L50.2644 121.057L101.284 146.596L111.948 142.044Z" fill="#FF346D"/>
<path d="M67.9386 120.052L178.286 175.328L115.011 162.558L4.60547 107.283L67.9386 120.052Z" fill="url(#paint3_linear_1_1032)"/>
<path d="M2.07178 101.254L2.77876 101.372L73.6529 115.679C72.8281 118.221 70.7661 120.053 68.763 120.112C68.4685 120.112 68.2328 120.112 67.9382 120.053L4.66403 107.284C2.4842 106.811 1.12915 104.091 2.07178 101.254Z" fill="url(#paint4_linear_1_1032)"/>
<path opacity="0.3" d="M44.0188 111.481L43.6653 112.427C43.3707 112.604 43.194 112.722 42.8994 112.9L38.7754 112.072C38.6575 111.777 38.5397 111.599 38.4219 111.363L38.7754 110.417L44.0188 111.481ZM50.7939 113.018L46.3753 112.131L45.904 113.432L50.3226 114.319L50.7939 113.018ZM57.5691 114.378L53.1505 113.491L52.6792 114.792L57.0978 115.678L57.5691 114.378ZM62.0466 115.442C61.752 115.383 61.4575 115.56 61.3396 115.856C61.2218 116.151 61.3985 116.447 61.6342 116.506C61.9288 116.565 62.2234 116.388 62.2823 116.092C62.459 115.797 62.2823 115.501 62.0466 115.442ZM64.1086 115.915C63.8141 115.856 63.5195 116.033 63.4016 116.329C63.2838 116.624 63.4606 116.92 63.6962 116.979C63.9908 117.038 64.2854 116.861 64.3443 116.565C64.521 116.21 64.4032 115.974 64.1086 115.915Z" fill="#141414"/>
<path d="M183.882 171.19C183.941 171.071 183.941 171.012 184 170.894L73.6528 115.619C73.5939 115.737 73.535 115.915 73.4761 116.033C73.4761 116.092 73.4172 116.092 73.4172 116.151C73.3583 116.269 73.2994 116.388 73.2405 116.565C73.1815 116.683 73.1226 116.801 73.0637 116.92C73.0637 116.92 73.0637 116.979 73.0048 116.979C72.9459 117.097 72.887 117.215 72.7691 117.333C72.7691 117.333 72.7691 117.393 72.7102 117.393C72.6513 117.511 72.5924 117.629 72.4746 117.688C72.4746 117.688 72.4746 117.688 72.4746 117.747C72.4156 117.866 72.2978 117.984 72.2389 118.043L72.18 118.102C72.1211 118.22 72.0032 118.279 71.8854 118.398C71.8854 118.398 71.8854 118.398 71.8265 118.457C71.7676 118.516 71.6498 118.634 71.5908 118.693L71.5319 118.752C71.473 118.811 71.4141 118.871 71.2963 118.93C71.2374 118.93 71.2374 118.989 71.1784 118.989C71.1195 119.048 71.0606 119.107 70.9428 119.166C70.8839 119.166 70.8839 119.225 70.825 119.225C70.766 119.225 70.766 119.284 70.7071 119.284C70.5893 119.343 70.5304 119.403 70.4125 119.462C70.3536 119.462 70.2947 119.521 70.2947 119.521C70.2358 119.58 70.118 119.58 70.0591 119.639C70.0002 119.639 69.9412 119.698 69.8823 119.698C69.8234 119.757 69.7056 119.757 69.6467 119.816C69.5878 119.816 69.5288 119.876 69.4699 119.876C69.3521 119.876 69.2932 119.935 69.1754 119.935C69.1164 119.935 69.1164 119.935 69.0575 119.935C68.9397 119.935 68.7629 119.994 68.6451 119.994C68.3505 119.994 68.1149 119.994 67.8203 119.935L178.167 175.21C178.403 175.269 178.697 175.269 178.992 175.269C179.11 175.269 179.287 175.269 179.404 175.21C179.463 175.21 179.522 175.21 179.522 175.21C179.64 175.21 179.699 175.151 179.817 175.151C179.876 175.151 179.935 175.091 179.994 175.091C180.053 175.091 180.17 175.032 180.229 174.973C180.288 174.973 180.347 174.914 180.406 174.914C180.524 174.855 180.583 174.855 180.642 174.796C180.701 174.796 180.701 174.737 180.759 174.737C180.759 174.737 180.76 174.737 180.818 174.737C180.936 174.678 180.995 174.619 181.113 174.559L181.172 174.5C181.231 174.5 181.231 174.441 181.29 174.441C181.349 174.382 181.408 174.382 181.466 174.323C181.466 174.323 181.466 174.323 181.525 174.323C181.584 174.323 181.584 174.264 181.643 174.264C181.702 174.205 181.761 174.205 181.761 174.146L181.82 174.086L181.879 174.027L181.938 173.968C181.997 173.909 182.056 173.85 182.115 173.791C182.115 173.791 182.115 173.791 182.173 173.791C182.232 173.732 182.291 173.673 182.35 173.554L182.409 173.495L182.468 173.436L182.527 173.377C182.586 173.318 182.645 173.259 182.704 173.141C182.704 173.141 182.704 173.141 182.704 173.081C182.763 173.022 182.763 172.963 182.822 172.904C182.88 172.845 182.88 172.786 182.939 172.786C182.939 172.786 182.939 172.727 182.998 172.727C182.998 172.727 182.998 172.727 182.998 172.668C183.057 172.609 183.116 172.49 183.175 172.431C183.175 172.431 183.175 172.372 183.234 172.372L183.293 172.313C183.293 172.254 183.352 172.254 183.352 172.195C183.411 172.076 183.47 172.017 183.47 171.899C183.528 171.781 183.587 171.722 183.587 171.604C183.587 171.544 183.587 171.544 183.646 171.485C183.646 171.426 183.705 171.426 183.705 171.367C183.823 171.308 183.882 171.249 183.882 171.19Z" fill="url(#paint5_linear_1_1032)"/>
<path d="M103.7 82.1279L108.1 73.9279L104.6 63.8279V57.6279L115.4 63.8279V70.0279L110.8 78.0279C110.7 78.1279 110.6 78.2279 110.5 78.3279L103.7 82.1279Z" fill="#42BDEB"/>
<path opacity="0.2" d="M103.7 82.1279L108.1 73.9279L104.6 63.8279V57.6279L115.4 63.8279V70.0279L110.8 78.0279C110.7 78.1279 110.6 78.2279 110.5 78.3279L103.7 82.1279Z" fill="black"/>
<path d="M78.0009 8.22792C78.0009 6.12792 79.4009 3.62792 81.2009 2.62792L83.8008 1.12793C85.6009 0.12793 88.5008 0.12793 90.3008 1.12793L130.601 24.4279C132.401 25.4279 133.801 27.9279 133.801 30.0279V74.3279C133.801 76.4279 132.401 78.9279 130.601 79.9279L128.001 81.4279C126.201 82.4279 123.301 82.4279 121.501 81.4279L108.501 73.9279L103.901 81.9279C103.601 82.4279 102.801 82.3279 102.701 81.8279L97.8008 67.7279L81.2009 58.1279C79.4009 57.1279 78.0009 54.6279 78.0009 52.5279V8.22792Z" fill="url(#paint6_linear_1_1032)"/>
<path d="M133.8 74.3277C133.8 76.4277 132.4 78.9277 130.6 79.9277L128 81.4277C126.4 82.3277 123.9 82.4277 122.1 81.7277C123.6 82.3277 124.8 81.4277 124.8 79.6277V35.3277C124.8 34.3277 124.4 33.1277 123.9 32.1277L133 26.9277C133.6 27.9277 133.9 29.0277 133.9 30.1277V74.3277H133.8Z" fill="url(#paint7_linear_1_1032)"/>
<path d="M78.1007 7.32792C78.5007 5.92792 79.7007 5.52792 81.2007 6.42792L121.501 29.6279C122.401 30.1279 123.401 31.3279 124.001 32.3279L133.02 26.9533C132.385 25.765 131.419 24.8798 130.519 24.3798L90.3007 1.12793C88.5007 0.12793 85.6007 0.12793 83.8007 1.12793L81.2007 2.62792C79.7007 3.52792 78.4007 5.42792 78.1007 7.32792Z" fill="url(#paint8_linear_1_1032)"/>
<path d="M118.801 52.6279C118.801 52.2279 118.701 51.9279 118.601 51.7279C118.501 51.4279 118.301 51.2279 118.101 50.8279L109.301 36.6279C109.201 36.5279 109.201 36.5279 109.201 36.4279L109.101 36.3279C109.001 36.2279 108.901 36.2279 108.801 36.3279C108.701 36.4279 108.701 36.5279 108.701 36.7279V42.3279C108.701 42.7279 108.801 43.1279 109.001 43.4279C109.201 43.7279 109.301 44.0279 109.401 44.1279L113.901 51.0279L109.401 53.1279C109.301 53.1279 109.101 53.2279 109.001 53.3279C108.801 53.4279 108.701 53.7279 108.701 54.1279V58.0279C108.701 58.2279 108.701 58.4279 108.801 58.6279C108.901 58.8279 109.001 58.9279 109.101 59.0279H109.201H109.301L118.101 55.0279C118.301 54.9279 118.501 54.8279 118.601 54.7279C118.701 54.6279 118.801 54.3279 118.801 54.0279V52.6279Z" fill="white"/>
<path d="M99.7006 30.7275C99.6006 30.4275 99.5006 30.1275 99.4006 29.8275C99.3006 29.5275 99.0006 29.3275 98.8006 29.1275L95.9006 27.4275C95.8006 27.3275 95.7006 27.3275 95.6006 27.4275C95.5006 27.5275 95.5006 27.6275 95.5006 27.8275C95.5006 27.9275 95.5006 28.0275 95.5006 28.1275L102.801 59.8275C102.901 60.1275 103.001 60.3275 103.101 60.7275C103.201 61.0275 103.501 61.2275 103.801 61.4275L106.701 63.1275C106.801 63.2275 106.901 63.2275 107.001 63.1275C107.101 63.0275 107.101 62.9275 107.101 62.7275C107.101 62.6275 107.101 62.5275 107.101 62.4275L99.7006 30.7275Z" fill="white"/>
<path d="M83.6012 35.8271C83.6012 36.2271 83.7012 36.5271 83.8012 36.7271C83.9012 37.0271 84.1012 37.2271 84.3012 37.6271L93.1012 51.8271C93.2012 51.9271 93.2012 51.9271 93.2012 52.0271L93.3012 52.1271C93.4012 52.2271 93.5012 52.2271 93.6012 52.1271C93.7012 52.0271 93.7012 51.9271 93.7012 51.7271V46.2271C93.7012 45.8271 93.6012 45.4271 93.4012 45.1271C93.2012 44.8271 93.1012 44.6271 93.0012 44.4271L89.2012 38.5271L93.0012 37.0271C93.1012 37.0271 93.3012 36.9271 93.4012 36.8271C93.6012 36.7271 93.7012 36.4271 93.7012 36.0271V30.3271C93.7012 30.1271 93.7012 29.9271 93.6012 29.7271C93.5012 29.5271 93.4012 29.4271 93.3012 29.3271H93.2012H93.1012L84.3012 33.3271C84.1012 33.4271 83.9012 33.5271 83.8012 33.6271C83.7012 33.7271 83.6012 34.0271 83.6012 34.3271V35.8271Z" fill="white"/>
</g>
<defs>
<linearGradient id="paint0_linear_1_1032" x1="18.6085" y1="5.23576" x2="3.21818" y2="101.35" gradientUnits="userSpaceOnUse">
<stop offset="0.00500165" stop-color="#606060"/>
<stop offset="0.1994" stop-color="#5C5C5C"/>
<stop offset="0.401" stop-color="#504F50"/>
<stop offset="0.5602" stop-color="#424041"/>
<stop offset="0.6956" stop-color="#3E3D3D"/>
<stop offset="0.8194" stop-color="#333233"/>
<stop offset="0.9384" stop-color="#212021"/>
<stop offset="1" stop-color="#141414"/>
</linearGradient>
<linearGradient id="paint1_linear_1_1032" x1="137.883" y1="73.2117" x2="6.4479" y2="89.6768" gradientUnits="userSpaceOnUse">
<stop offset="0.00500165" stop-color="#606060"/>
<stop offset="0.1994" stop-color="#5C5C5C"/>
<stop offset="0.401" stop-color="#504F50"/>
<stop offset="0.5602" stop-color="#424041"/>
<stop offset="0.6956" stop-color="#3E3D3D"/>
<stop offset="0.8194" stop-color="#333233"/>
<stop offset="0.9384" stop-color="#212021"/>
<stop offset="1" stop-color="#141414"/>
</linearGradient>
<linearGradient id="paint2_linear_1_1032" x1="66.407" y1="12.3398" x2="66.407" y2="151.089" gradientUnits="userSpaceOnUse">
<stop stop-color="#CE436B"/>
<stop offset="1" stop-color="#6B3343"/>
</linearGradient>
<linearGradient id="paint3_linear_1_1032" x1="73.5192" y1="185.506" x2="93.0428" y2="137.711" gradientUnits="userSpaceOnUse">
<stop offset="0.00500165" stop-color="#606060"/>
<stop offset="0.0934604" stop-color="#5C5C5C"/>
<stop offset="0.1852" stop-color="#504F50"/>
<stop offset="0.2576" stop-color="#424041"/>
<stop offset="0.4862" stop-color="#3E3D3D"/>
<stop offset="0.6952" stop-color="#333233"/>
<stop offset="0.8959" stop-color="#212021"/>
<stop offset="1" stop-color="#141414"/>
</linearGradient>
<linearGradient id="paint4_linear_1_1032" x1="-30.8537" y1="81.859" x2="99.8894" y2="136.852" gradientUnits="userSpaceOnUse">
<stop offset="0.00500165" stop-color="#606060"/>
<stop offset="0.1994" stop-color="#5C5C5C"/>
<stop offset="0.401" stop-color="#504F50"/>
<stop offset="0.5602" stop-color="#424041"/>
<stop offset="0.6956" stop-color="#3E3D3D"/>
<stop offset="0.8194" stop-color="#333233"/>
<stop offset="0.9384" stop-color="#212021"/>
<stop offset="1" stop-color="#141414"/>
</linearGradient>
<linearGradient id="paint5_linear_1_1032" x1="186.799" y1="174.137" x2="49.4027" y2="109.892" gradientUnits="userSpaceOnUse">
<stop offset="0.00500165" stop-color="#606060"/>
<stop offset="0.1511" stop-color="#5C5C5C"/>
<stop offset="0.3027" stop-color="#504F50"/>
<stop offset="0.4224" stop-color="#424041"/>
<stop offset="0.595" stop-color="#3E3D3D"/>
<stop offset="0.7528" stop-color="#333233"/>
<stop offset="0.9044" stop-color="#212021"/>
<stop offset="0.983" stop-color="#141414"/>
</linearGradient>
<linearGradient id="paint6_linear_1_1032" x1="73.7634" y1="4.06596" x2="120.221" y2="84.0681" gradientUnits="userSpaceOnUse">
<stop stop-color="#66C1E3"/>
<stop offset="1" stop-color="#2686AA"/>
</linearGradient>
<linearGradient id="paint7_linear_1_1032" x1="128" y1="26.9277" x2="128" y2="82.1871" gradientUnits="userSpaceOnUse">
<stop stop-color="#266D87"/>
<stop offset="1" stop-color="#2D7F9D"/>
</linearGradient>
<linearGradient id="paint8_linear_1_1032" x1="85.5007" y1="3.32788" x2="125.888" y2="30.5376" gradientUnits="userSpaceOnUse">
<stop stop-color="#87DDFD"/>
<stop offset="0.855014" stop-color="#3F99BA"/>
<stop offset="1" stop-color="#276F8A"/>
</linearGradient>
<clipPath id="clip0_1_1032">
<rect width="184" height="175" fill="white" transform="translate(0 0.328125)"/>
</clipPath>
</defs>
</svg>
